<svg width="48" height="48" viewBox="0 0 48 48" fill="none" xmlns="http://www.w3.org/2000/svg">
    <path d="M38.8 23.65C38.6333 19.6166 37.15 16.2 34.35 13.4C31.55 10.6 28.1333 9.11662 24.1 8.94995V5.94995C26.5 6.01662 28.7583 6.52495 30.875 7.47495C32.9917 8.42495 34.85 9.69995 36.45 11.3C38.05 12.9 39.325 14.7583 40.275 16.875C41.225 18.9916 41.7333 21.25 41.8 23.65H38.8ZM30.35 23.65C30.1833 21.9833 29.5167 20.575 28.35 19.425C27.1833 18.275 25.7667 17.6166 24.1 17.45V14.45C26.6 14.6166 28.725 15.5666 30.475 17.3C32.225 19.0333 33.1833 21.15 33.35 23.65H30.35ZM39.75 42C35.6833 42 31.6417 41 27.625 39C23.6083 37 20 34.4 16.8 31.2C13.6 28 11 24.3916 9 20.375C7 16.3583 6 12.3166 6 8.24995C6 7.61662 6.21667 7.08328 6.65 6.64995C7.08333 6.21662 7.61667 5.99995 8.25 5.99995H15.25C15.7167 5.99995 16.125 6.15828 16.475 6.47495C16.825 6.79162 17.05 7.21662 17.15 7.74995L18.5 14.05C18.5667 14.5166 18.5583 14.9416 18.475 15.325C18.3917 15.7083 18.2167 16.0333 17.95 16.3L12.95 21.35C14.8167 24.45 16.9083 27.15 19.225 29.45C21.5417 31.75 24.1667 33.6999 27.1 35.2999L31.85 30.4C32.1833 30.0333 32.5667 29.775 33 29.625C33.4333 29.475 33.8667 29.4499 34.3 29.5499L40.25 30.85C40.75 30.95 41.1667 31.2 41.5 31.6C41.8333 32 42 32.4666 42 33V39.75C42 40.3833 41.7833 40.9166 41.35 41.3499C40.9167 41.7833 40.3833 42 39.75 42ZM11.45 18.6L15.5 14.5L14.35 8.99995H9C9 10.3 9.2 11.725 9.6 13.275C10 14.825 10.6167 16.6 11.45 18.6ZM29.9 36.75C31.2667 37.3833 32.75 37.8999 34.35 38.2999C35.95 38.6999 37.5 38.9333 39 39V33.65L33.85 32.5999L29.9 36.75Z" fill="white"/>
</svg>
    