<svg width="25" height="25" viewBox="0 0 25 25" fill="none" xmlns="http://www.w3.org/2000/svg">
<circle cx="12.25" cy="12.0703" r="12" fill="#F9F9F9"/>
<path d="M10.4688 8.22656H10.375C10.4266 8.22656 10.4688 8.18437 10.4688 8.13281V8.22656H14.0312V8.13281C14.0312 8.18437 14.0734 8.22656 14.125 8.22656H14.0312V9.07031H14.875V8.13281C14.875 7.71914 14.5387 7.38281 14.125 7.38281H10.375C9.96133 7.38281 9.625 7.71914 9.625 8.13281V9.07031H10.4688V8.22656ZM16.375 9.07031H8.125C7.91758 9.07031 7.75 9.23789 7.75 9.44531V9.82031C7.75 9.87188 7.79219 9.91406 7.84375 9.91406H8.55156L8.84102 16.043C8.85977 16.4426 9.19023 16.7578 9.58984 16.7578H14.9102C15.3109 16.7578 15.6402 16.4438 15.659 16.043L15.9484 9.91406H16.6562C16.7078 9.91406 16.75 9.87188 16.75 9.82031V9.44531C16.75 9.23789 16.5824 9.07031 16.375 9.07031ZM14.8199 15.9141H9.68008L9.39648 9.91406H15.1035L14.8199 15.9141Z" fill="black"/>
</svg>
