<svg width="549" height="174" viewBox="0 0 549 174" fill="none" xmlns="http://www.w3.org/2000/svg">
<rect width="549" height="174" fill="black"/>
<g clip-path="url(#clip0_2_11)">
<path d="M74 46.118L84.3035 36L120.644 71.6863L131.087 81.8043L120.644 91.9222L84.3035 127.609L74 117.491L110.341 81.8043L74 46.118ZM199.312 138V122.139H134.985V138H199.312Z" fill="white"/>
<path d="M297.154 80.1167C302.493 80.1167 306.674 84.1153 306.674 89.2204V116.459C306.674 117.295 306.518 117.898 306.392 118.382C306.347 118.55 306.301 118.721 306.268 118.917C306.231 119.131 306.162 119.339 306.064 119.535C306.047 119.588 306.029 119.639 306.011 119.69C305.992 119.792 305.966 119.892 305.933 119.991C305.395 121.572 304.327 122.929 302.756 124.022C294.133 130.594 283.821 134.067 272.931 134.067C246.158 134.067 224.375 113.23 224.375 87.6163C224.375 75.806 228.938 64.5531 237.227 55.9276C238.076 55.0461 239.495 55.0043 240.395 55.8373C241.295 56.6726 241.336 58.0647 240.487 58.9493C232.988 66.7539 228.858 76.9358 228.858 87.6169C228.858 110.802 248.628 129.666 272.931 129.666C282.833 129.666 292.21 126.502 300.047 120.515C300.076 120.492 300.108 120.471 300.138 120.449C300.864 119.95 301.332 119.429 301.595 118.825C301.631 118.601 301.701 118.383 301.806 118.179C301.836 118.088 301.866 118 301.902 117.906C301.947 117.691 301.998 117.49 302.05 117.291C302.146 116.919 302.193 116.728 302.193 116.459V89.2203C302.193 86.5406 300.028 84.519 297.156 84.519H282.377C281.14 84.519 280.135 83.533 280.135 82.3181C280.135 81.1031 281.139 80.1171 282.377 80.1171H297.156L297.154 80.1167ZM251.718 50.5194C250.626 51.0927 249.268 50.6888 248.684 49.618C248.099 48.5461 248.51 47.2123 249.601 46.639C256.71 42.8996 264.777 40.9222 272.933 40.9222C283.9 40.9222 294.557 44.5054 302.938 51.0102C304.882 52.4035 306.191 54.5482 306.556 57.0002C306.925 59.4895 306.253 62.0591 304.712 64.0521C303.161 65.9757 300.849 67.2203 298.342 67.4998C295.811 67.7881 293.324 67.0914 291.362 65.5486C286.09 61.5782 279.532 59.376 272.93 59.376C264.751 59.376 257.296 62.3362 251.94 67.7111C246.264 73.0507 243.166 80.1023 243.166 87.6181C243.166 94.9747 246.264 101.94 251.888 107.229C257.295 112.654 264.75 115.614 272.93 115.614C277.965 115.614 283.109 114.309 287.884 111.832V98.4467H272.177C267.084 98.4467 262.782 94.222 262.782 89.2203C262.782 84.1162 266.909 80.1172 272.177 80.1172C273.415 80.1172 274.419 81.1032 274.419 82.3182C274.419 83.5331 273.415 84.5191 272.177 84.5191C269.423 84.5191 267.265 86.5836 267.265 89.2204C267.265 91.8351 269.515 94.0448 272.177 94.0448H290.126C291.363 94.0448 292.367 95.0308 292.367 96.2457V113.133C292.367 113.919 291.939 114.648 291.243 115.04C285.479 118.296 279.146 120.016 272.931 120.016C263.534 120.016 254.943 116.586 248.736 110.357C242.272 104.282 238.683 96.1872 238.683 87.6176C238.683 78.8898 242.272 70.7083 248.787 64.5829C254.94 58.4049 263.533 54.9747 272.929 54.9747C280.513 54.9747 288.041 57.5003 294.125 62.0851C295.185 62.917 296.487 63.2791 297.837 63.1272C299.167 62.9797 300.382 62.3337 301.17 61.3565C301.961 60.3331 302.317 58.9652 302.12 57.6379C301.93 56.3646 301.258 55.2564 300.226 54.5159C292.564 48.5701 282.895 45.3248 272.931 45.3248C265.513 45.3248 258.177 47.1219 251.716 50.5202L251.718 50.5194ZM382.652 43.3889C387.695 43.3889 391.796 47.4164 391.796 52.3694C391.796 57.303 387.608 61.4715 382.652 61.4715H364.935V75.739C364.935 76.9539 363.931 77.9399 362.694 77.9399C361.457 77.9399 360.453 76.954 360.453 75.739V59.2693C360.453 58.0544 361.457 57.0683 362.694 57.0683H382.652C385.135 57.0683 387.314 54.8718 387.314 52.3684C387.314 49.8439 385.223 47.7905 382.652 47.7905H341.023C339.786 47.7905 338.782 46.8045 338.782 45.5896C338.782 44.3746 339.786 43.3887 341.023 43.3887H382.652L382.652 43.3889ZM362.694 85.3079C363.933 85.3079 364.936 86.293 364.936 87.5089V125.085C364.936 130.121 360.919 134.064 355.792 134.064C350.749 134.064 346.648 130.037 346.648 125.085V61.4687H329.058C324.015 61.4687 319.914 57.386 319.914 52.3667C319.914 47.3308 323.93 43.3871 329.058 43.3871C330.295 43.3871 331.3 44.3731 331.3 45.588C331.3 46.803 330.295 47.789 329.058 47.789C326.4 47.789 324.397 49.7567 324.397 52.3668C324.397 54.9584 326.488 57.0668 329.058 57.0668H348.889C350.126 57.0668 351.131 58.0528 351.131 59.2677V125.086C351.131 127.611 353.222 129.664 355.792 129.664C358.449 129.664 360.453 127.696 360.453 125.086V87.5104C360.453 86.2956 361.457 85.3095 362.694 85.3095L362.694 85.3079ZM471.686 71.7615C473.885 77.1242 475 82.7916 475 88.6058C475 113.675 454.344 134.069 428.955 134.069H414.144C409.102 134.069 405 130.041 405 125.089V52.371C405 47.3352 409.016 43.3914 414.144 43.3914H428.955C440.849 43.3914 452.14 47.8429 460.748 55.9246C461.642 56.7643 461.674 58.1575 460.819 59.0355C459.964 59.9135 458.546 59.9478 457.649 59.1048C449.88 51.8099 439.689 47.7931 428.952 47.7931H414.142C411.485 47.7931 409.48 49.7608 409.48 52.3709V125.093C409.48 127.617 411.571 129.67 414.142 129.67H428.952C451.869 129.67 470.515 111.25 470.515 88.6089C470.515 83.3596 469.51 78.2458 467.526 73.4084C467.063 72.2804 467.62 70.9984 468.768 70.5439C469.916 70.0905 471.222 70.6374 471.685 71.7632L471.686 71.7615ZM421.172 91.2819C422.409 91.2819 423.413 92.2669 423.413 93.483V115.986H428.954C444.44 115.869 456.584 103.844 456.584 88.6056C456.584 73.6442 444.189 61.4726 428.954 61.4726H423.413V79.6105C423.413 80.8254 422.409 81.8114 421.172 81.8114C419.935 81.8114 418.931 80.8254 418.931 79.6105V59.2714C418.931 58.0565 419.935 57.0705 421.172 57.0705H428.954C446.661 57.0705 461.067 71.2172 461.067 88.6059C461.067 106.292 446.968 120.253 428.971 120.387H421.172C419.935 120.387 418.931 119.401 418.931 118.186V93.4825C418.931 92.2677 419.935 91.2816 421.172 91.2816L421.172 91.2819Z" fill="white"/>
</g>
<defs>
<clipPath id="clip0_2_11">
<rect width="401" height="102" fill="white" transform="translate(74 36)"/>
</clipPath>
</defs>
</svg>
